# This file uses centimeters as units for non-parametric coordinates.
# UVs by headus UVLayout v2.08.01 2013/07/04 09:42:04

mtllib alien.mtl
g default
v -0.686006 -0.500000 0.244277
v 0.686006 -0.500000 0.244277
v -0.500000 0.500000 0.244277
v 0.500000 0.500000 0.244277
v -0.500000 0.500000 0.008445
v 0.500000 0.500000 0.008445
v -0.686006 -0.500000 0.008445
v 0.686006 -0.500000 0.008445
v -1.111331 -0.628236 0.008445
v 1.111331 -0.628236 0.008445
v 1.111331 -0.628236 0.244276
v -1.111331 -0.628236 0.244276
v -1.111331 -2.462089 0.008445
v 1.111331 -2.462089 0.008445
v 1.111331 -2.462089 0.244276
v -1.111331 -2.462089 0.244276
v -0.900209 -3.206982 0.008445
v 0.830109 -3.206982 0.008445
v 0.830109 -3.206982 0.244276
v -0.900209 -3.206982 0.244276
v -0.900209 -3.478271 0.008445
v 0.830109 -3.478271 0.008445
v 0.830109 -3.478271 0.244276
v -0.900209 -3.478271 0.244276
v -1.772593 -4.175025 0.008445
v 1.702494 -4.175025 0.008445
v 1.702494 -4.175025 0.244276
v -1.772593 -4.175025 0.244276
# 46 texture coords
vt 0.372940 0.141570
vt 0.171624 0.143784
vt 0.115487 0.164496
vt 0.429969 0.161046
vt 0.118570 0.348304
vt 0.434726 0.345103
vt 0.159919 0.424617
vt 0.406040 0.422035
vt 0.159053 0.456407
vt 0.408886 0.453501
vt 0.869634 0.570593
vt 0.877487 0.780853
vt 0.530080 0.787835
vt 0.522227 0.577570
vt 0.802605 0.557225
vt 0.588157 0.561531
vt 0.836723 0.867143
vt 0.566271 0.872581
vt 0.612952 0.446292
vt 0.769254 0.443153
vt 0.837885 0.898248
vt 0.567433 0.903686
vt 0.977227 0.975392
vt 0.434064 0.986316
vt 0.401554 0.127712
vt 0.454853 0.153331
vt 0.340562 0.037784
vt 0.371449 0.031309
vt 0.467147 0.346718
vt 0.438352 0.422773
vt 0.090246 0.157394
vt 0.142410 0.130566
vt 0.168340 0.033545
vt 0.199494 0.039338
vt 0.198009 0.015259
vt 0.341003 0.013684
vt 0.437637 0.442787
vt 0.086756 0.351412
vt 0.556847 0.510315
vt 0.534524 0.527028
vt 0.127764 0.427169
vt 0.129991 0.446678
vt 0.534633 0.551135
vt 0.037725 0.556847
vt 0.036745 0.532780
vt 0.013684 0.516592
vn 0.000000 -0.000000 1.000000
vn 0.000000 -0.000000 1.000000
vn 0.000000 0.000000 1.000000
vn 0.000000 0.000000 1.000000
vn 0.000000 1.000000 0.000000
vn 0.000000 1.000000 0.000000
vn 0.000000 1.000000 0.000000
vn 0.000000 1.000000 0.000000
vn 0.000000 0.000000 -1.000000
vn 0.000000 0.000000 -1.000000
vn 0.000000 -0.000000 -1.000000
vn 0.000000 -0.000000 -1.000000
vn 0.000000 -1.000000 0.000000
vn 0.000000 -1.000000 0.000000
vn 0.000000 -1.000000 0.000000
vn 0.000000 -1.000000 0.000000
vn 0.879226 0.476406 0.000000
vn 0.879226 0.476406 0.000000
vn 0.983137 0.182870 0.000000
vn 0.983137 0.182870 0.000000
vn -0.879226 0.476406 0.000000
vn -0.879226 0.476406 0.000000
vn -0.983137 0.182870 0.000000
vn -0.983137 0.182870 0.000000
vn 0.000000 -0.000000 -1.000000
vn 0.000000 -0.000000 -1.000000
vn 0.288667 0.957430 0.000000
vn 0.288667 0.957430 0.000000
vn 0.000000 -0.000000 1.000000
vn 0.000000 -0.000000 1.000000
vn -0.288667 0.957430 0.000000
vn -0.288667 0.957430 0.000000
vn 0.000000 0.000000 -1.000000
vn 0.000000 0.000000 -1.000000
vn 1.000000 0.000000 0.000000
vn 1.000000 0.000000 0.000000
vn 0.994106 -0.108411 0.000000
vn 0.994106 -0.108411 0.000000
vn 0.000000 0.000000 1.000000
vn 0.000000 0.000000 1.000000
vn -1.000000 0.000000 0.000000
vn -1.000000 0.000000 0.000000
vn -0.996665 -0.081597 0.000000
vn -0.996665 -0.081597 0.000000
vn 0.000000 0.000000 -1.000000
vn 0.000000 0.000000 -1.000000
vn 0.963774 -0.266719 0.000000
vn 0.963774 -0.266719 0.000000
vn 0.000000 0.000000 1.000000
vn 0.000000 0.000000 1.000000
vn -0.979092 -0.203417 0.000000
vn -0.979092 -0.203417 0.000000
vn 0.000000 0.000000 -1.000000
vn 0.000000 0.000000 -1.000000
vn 1.000000 0.000000 0.000000
vn 1.000000 0.000000 0.000000
vn 0.000000 0.000000 1.000000
vn 0.000000 0.000000 1.000000
vn -1.000000 0.000000 0.000000
vn -1.000000 0.000000 0.000000
vn 0.000000 0.000000 -1.000000
vn 0.000000 0.000000 -1.000000
vn 0.624065 0.781372 0.000000
vn 0.624065 0.781372 0.000000
vn 0.624065 0.781372 0.000000
vn 0.624065 0.781372 0.000000
vn 0.000000 0.000000 1.000000
vn 0.000000 0.000000 1.000000
vn -0.624065 0.781372 0.000000
vn -0.624065 0.781372 0.000000
vn -0.624065 0.781372 0.000000
vn -0.624065 0.781372 0.000000
s 1
g pCube1
usemtl initialShadingGroup
f 1/1/1 2/2/2 4/34/3 3/27/4
s off
f 3/27/5 4/34/6 6/35/7 5/36/8
s 2
f 5/19/9 6/20/10 8/15/11 7/16/12
s off
f 25/43/13 26/44/14 27/45/15 28/40/16
s 3
f 2/2/17 8/32/18 6/33/19 4/34/20
s 4
f 7/25/21 1/1/22 3/27/23 5/28/24
s 2
f 7/16/12 8/15/11 10/11/25 9/14/26
s 3
f 8/32/18 2/2/17 11/3/27 10/31/28
s 1
f 2/2/2 1/1/1 12/4/29 11/3/30
s 4
f 1/1/22 7/25/21 9/26/31 12/4/32
s 2
f 9/14/26 10/11/25 14/12/33 13/13/34
s 5
f 10/31/35 11/3/36 15/5/37 14/38/38
s 1
f 11/3/30 12/4/29 16/6/39 15/5/40
s 6
f 12/4/41 9/26/42 13/29/43 16/6/44
s 2
f 13/13/34 14/12/33 18/17/45 17/18/46
s 5
f 14/38/38 15/5/37 19/7/47 18/41/48
s 1
f 15/5/40 16/6/39 20/8/49 19/7/50
s 6
f 16/6/44 13/29/43 17/30/51 20/8/52
s 2
f 17/18/46 18/17/45 22/21/53 21/22/54
s 5
f 18/41/48 19/7/47 23/9/55 22/42/56
s 1
f 19/7/50 20/8/49 24/10/57 23/9/58
s 6
f 20/8/52 17/30/51 21/37/59 24/10/60
s 2
f 21/22/54 22/21/53 26/23/61 25/24/62
s off
f 22/42/63 23/9/64 27/45/65 26/46/66
s 1
f 23/9/58 24/10/57 28/40/67 27/45/68
s off
f 24/10/69 21/37/70 25/39/71 28/40/72
